<svg width="85" height="109" viewBox="0 0 85 109" fill="none" xmlns="http://www.w3.org/2000/svg">
<line x1="18.8281" y1="3.32812" x2="84.2188" y2="3.32812" stroke="white" stroke-opacity="0.5"/>
<line x1="18.8281" y1="104.5" x2="84.2188" y2="104.5" stroke="white" stroke-opacity="0.5"/>
<line x1="18.8281" y1="93.5" x2="84.2188" y2="93.5" stroke="white" stroke-opacity="0.5"/>
<line x1="18.8281" y1="83.5" x2="84.2188" y2="83.5" stroke="white" stroke-opacity="0.5"/>
<line x1="18.8281" y1="73.5" x2="84.2188" y2="73.5" stroke="white" stroke-opacity="0.5"/>
<line x1="18.8281" y1="63.5" x2="84.2188" y2="63.5" stroke="white" stroke-opacity="0.5"/>
<line x1="18.8281" y1="53.5" x2="84.2188" y2="53.5" stroke="white" stroke-opacity="0.5"/>
<line x1="18.8281" y1="43.5" x2="84.2188" y2="43.5" stroke="white" stroke-opacity="0.5"/>
<line x1="18.8281" y1="33.5" x2="84.2188" y2="33.5" stroke="white" stroke-opacity="0.5"/>
<line x1="18.8281" y1="23.5" x2="84.2188" y2="23.5" stroke="white" stroke-opacity="0.5"/>
<line x1="18.8281" y1="13.5" x2="84.2188" y2="13.5" stroke="white" stroke-opacity="0.5"/>
<path d="M10.3945 104.204C10.3945 104.817 10.2793 105.28 10.0488 105.593C9.82031 105.903 9.47168 106.059 9.00293 106.059C8.54199 106.059 8.19434 105.907 7.95996 105.604C7.72754 105.3 7.6084 104.85 7.60254 104.254V103.516C7.60254 102.902 7.7168 102.442 7.94531 102.136C8.17578 101.829 8.52637 101.676 8.99707 101.676C9.46387 101.676 9.81152 101.825 10.04 102.124C10.2705 102.423 10.3887 102.87 10.3945 103.466V104.204ZM9.68262 103.407C9.68262 103.007 9.62793 102.714 9.51855 102.528C9.40918 102.341 9.23535 102.247 8.99707 102.247C8.76465 102.247 8.59375 102.336 8.48438 102.514C8.375 102.689 8.31738 102.965 8.31152 103.34V104.307C8.31152 104.705 8.36719 105.002 8.47852 105.197C8.58984 105.393 8.76465 105.49 9.00293 105.49C9.23145 105.49 9.40039 105.4 9.50977 105.221C9.61914 105.039 9.67676 104.756 9.68262 104.371V103.407Z" fill="#E1EAEE"/>
<path d="M9.54199 96H8.83301V92.5752L7.78711 92.9326V92.332L9.45117 91.7197H9.54199V96Z" fill="#E1EAEE"/>
<path d="M10.4824 86H7.61426V85.5107L9.03516 83.9609C9.24023 83.7324 9.38574 83.542 9.47168 83.3896C9.55957 83.2354 9.60352 83.0811 9.60352 82.9268C9.60352 82.7236 9.5459 82.5596 9.43066 82.4346C9.31738 82.3096 9.16406 82.2471 8.9707 82.2471C8.74023 82.2471 8.56152 82.3174 8.43457 82.458C8.30762 82.5986 8.24414 82.791 8.24414 83.0352H7.53223C7.53223 82.7754 7.59082 82.542 7.70801 82.335C7.82715 82.126 7.99609 81.9639 8.21484 81.8486C8.43555 81.7334 8.68945 81.6758 8.97656 81.6758C9.39062 81.6758 9.7168 81.7803 9.95508 81.9893C10.1953 82.1963 10.3154 82.4834 10.3154 82.8506C10.3154 83.0635 10.2549 83.2871 10.1338 83.5215C10.0146 83.7539 9.81836 84.0186 9.54492 84.3154L8.50195 85.4316H10.4824V86Z" fill="#E1EAEE"/>
<path d="M8.4375 73.542H8.87109C9.08984 73.54 9.2627 73.4834 9.38965 73.3721C9.51855 73.2607 9.58301 73.0996 9.58301 72.8887C9.58301 72.6855 9.5293 72.5283 9.42188 72.417C9.31641 72.3037 9.1543 72.2471 8.93555 72.2471C8.74414 72.2471 8.58691 72.3027 8.46387 72.4141C8.34082 72.5234 8.2793 72.667 8.2793 72.8447H7.56738C7.56738 72.626 7.625 72.4268 7.74023 72.2471C7.85742 72.0674 8.01953 71.9277 8.22656 71.8281C8.43555 71.7266 8.66895 71.6758 8.92676 71.6758C9.35254 71.6758 9.68652 71.7832 9.92871 71.998C10.1729 72.2109 10.2949 72.5078 10.2949 72.8887C10.2949 73.0801 10.2334 73.2607 10.1104 73.4307C9.98926 73.5986 9.83203 73.7256 9.63867 73.8115C9.87305 73.8916 10.0508 74.0176 10.1719 74.1895C10.2949 74.3613 10.3564 74.5664 10.3564 74.8047C10.3564 75.1875 10.2246 75.4922 9.96094 75.7188C9.69922 75.9453 9.35449 76.0586 8.92676 76.0586C8.5166 76.0586 8.18066 75.9492 7.91895 75.7305C7.65723 75.5117 7.52637 75.2207 7.52637 74.8574H8.23828C8.23828 75.0449 8.30078 75.1973 8.42578 75.3145C8.55273 75.4316 8.72266 75.4902 8.93555 75.4902C9.15625 75.4902 9.33008 75.4316 9.45703 75.3145C9.58398 75.1973 9.64746 75.0273 9.64746 74.8047C9.64746 74.5801 9.58105 74.4072 9.44824 74.2861C9.31543 74.165 9.11816 74.1045 8.85645 74.1045H8.4375V73.542Z" fill="#E1EAEE"/>
<path d="M10.0225 64.4795H10.5527V65.0508H10.0225V66H9.31055V65.0508H7.46777L7.44727 64.6172L9.28711 61.7344H10.0225V64.4795ZM8.19434 64.4795H9.31055V62.6982L9.25781 62.792L8.19434 64.4795Z" fill="#E1EAEE"/>
<path d="M7.80469 53.8848L8.03613 51.7344H10.3271V52.3496H8.62793L8.51074 53.3691C8.70801 53.2559 8.93066 53.1992 9.17871 53.1992C9.58496 53.1992 9.90039 53.3291 10.125 53.5889C10.3516 53.8486 10.4648 54.1982 10.4648 54.6377C10.4648 55.0713 10.3398 55.417 10.0898 55.6748C9.83984 55.9307 9.49707 56.0586 9.06152 56.0586C8.6709 56.0586 8.34668 55.9482 8.08887 55.7275C7.83301 55.5049 7.69434 55.2119 7.67285 54.8486H8.36133C8.38867 55.0557 8.46289 55.2148 8.58398 55.3262C8.70508 55.4355 8.86328 55.4902 9.05859 55.4902C9.27734 55.4902 9.44727 55.4121 9.56836 55.2559C9.69141 55.0996 9.75293 54.8867 9.75293 54.6172C9.75293 54.3574 9.68555 54.1523 9.55078 54.002C9.41602 53.8496 9.23047 53.7734 8.99414 53.7734C8.86523 53.7734 8.75586 53.791 8.66602 53.8262C8.57617 53.8594 8.47852 53.9258 8.37305 54.0254L7.80469 53.8848Z" fill="#E1EAEE"/>
<path d="M9.8291 41.7139V42.3027H9.74121C9.34277 42.3086 9.02441 42.418 8.78613 42.6309C8.54785 42.8438 8.40625 43.1455 8.36133 43.5361C8.58984 43.2959 8.88184 43.1758 9.2373 43.1758C9.61426 43.1758 9.91113 43.3086 10.1279 43.5742C10.3467 43.8398 10.4561 44.1826 10.4561 44.6025C10.4561 45.0361 10.3281 45.3877 10.0723 45.6572C9.81836 45.9248 9.48438 46.0586 9.07031 46.0586C8.64453 46.0586 8.29883 45.9014 8.0332 45.5869C7.76953 45.2725 7.6377 44.8604 7.6377 44.3506V44.1074C7.6377 43.3594 7.81934 42.7734 8.18262 42.3496C8.54785 41.9258 9.07227 41.7139 9.75586 41.7139H9.8291ZM9.06445 43.75C8.9082 43.75 8.76465 43.7939 8.63379 43.8818C8.50488 43.9697 8.41016 44.0869 8.34961 44.2334V44.4502C8.34961 44.7666 8.41602 45.0186 8.54883 45.2061C8.68164 45.3916 8.85352 45.4844 9.06445 45.4844C9.27539 45.4844 9.44238 45.4053 9.56543 45.2471C9.68848 45.0889 9.75 44.8809 9.75 44.623C9.75 44.3652 9.6875 44.1553 9.5625 43.9932C9.4375 43.8311 9.27148 43.75 9.06445 43.75Z" fill="#E1EAEE"/>
<path d="M10.4531 32.1299L8.74805 36H8.00098L9.70312 32.3057H7.49707V31.7344H10.4531V32.1299Z" fill="#E1EAEE"/>
<path d="M10.3008 22.8594C10.3008 23.0684 10.2471 23.2549 10.1396 23.4189C10.0322 23.5811 9.88574 23.709 9.7002 23.8027C9.92285 23.9062 10.0938 24.0479 10.2129 24.2275C10.334 24.4072 10.3945 24.6104 10.3945 24.8369C10.3945 25.2119 10.2676 25.5098 10.0137 25.7305C9.75977 25.9492 9.42188 26.0586 9 26.0586C8.57617 26.0586 8.23633 25.9482 7.98047 25.7275C7.72656 25.5068 7.59961 25.21 7.59961 24.8369C7.59961 24.6084 7.66016 24.4033 7.78125 24.2217C7.90234 24.04 8.07227 23.9004 8.29102 23.8027C8.10742 23.709 7.96191 23.5811 7.85449 23.4189C7.74902 23.2549 7.69629 23.0684 7.69629 22.8594C7.69629 22.4961 7.81348 22.208 8.04785 21.9951C8.28223 21.7822 8.59863 21.6758 8.99707 21.6758C9.39746 21.6758 9.71484 21.7822 9.94922 21.9951C10.1836 22.208 10.3008 22.4961 10.3008 22.8594ZM9.68262 24.8018C9.68262 24.5908 9.61914 24.4209 9.49219 24.292C9.36719 24.1611 9.20117 24.0957 8.99414 24.0957C8.78711 24.0957 8.62109 24.1602 8.49609 24.2891C8.37305 24.418 8.31152 24.5889 8.31152 24.8018C8.31152 25.0107 8.37207 25.1777 8.49316 25.3027C8.61621 25.4277 8.78516 25.4902 9 25.4902C9.21484 25.4902 9.38184 25.4297 9.50098 25.3086C9.62207 25.1875 9.68262 25.0186 9.68262 24.8018ZM9.5918 22.8857C9.5918 22.7002 9.53809 22.5479 9.43066 22.4287C9.32324 22.3076 9.17871 22.2471 8.99707 22.2471C8.81543 22.2471 8.67188 22.3047 8.56641 22.4199C8.46094 22.5332 8.4082 22.6885 8.4082 22.8857C8.4082 23.0811 8.46094 23.2363 8.56641 23.3516C8.67383 23.4668 8.81836 23.5244 9 23.5244C9.18164 23.5244 9.3252 23.4668 9.43066 23.3516C9.53809 23.2363 9.5918 23.0811 9.5918 22.8857Z" fill="#E1EAEE"/>
<path d="M9.63281 14.2158C9.39453 14.4678 9.11621 14.5938 8.79785 14.5938C8.42285 14.5938 8.12402 14.4629 7.90137 14.2012C7.67871 13.9375 7.56738 13.5918 7.56738 13.1641C7.56738 12.8828 7.62402 12.6279 7.7373 12.3994C7.85059 12.1709 8.01172 11.9932 8.2207 11.8662C8.42969 11.7393 8.67188 11.6758 8.94727 11.6758C9.37695 11.6758 9.71777 11.8359 9.96973 12.1562C10.2217 12.4766 10.3477 12.9053 10.3477 13.4424V13.6416C10.3477 14.4111 10.1738 14.998 9.82617 15.4023C9.47852 15.8066 8.95996 16.0117 8.27051 16.0176H8.18555V15.4287H8.28809C8.70801 15.4229 9.03027 15.3223 9.25488 15.127C9.47949 14.9297 9.60547 14.626 9.63281 14.2158ZM8.94727 14.0371C9.08984 14.0371 9.22363 13.9961 9.34863 13.9141C9.47363 13.832 9.57031 13.7188 9.63867 13.5742V13.2959C9.63867 12.9814 9.57422 12.7285 9.44531 12.5371C9.31641 12.3457 9.14941 12.25 8.94434 12.25C8.73926 12.25 8.5752 12.335 8.45215 12.5049C8.33105 12.6729 8.27051 12.8857 8.27051 13.1436C8.27051 13.4111 8.33203 13.627 8.45508 13.791C8.57812 13.9551 8.74219 14.0371 8.94727 14.0371Z" fill="#E1EAEE"/>
<path d="M7.83691 6H7.12793V2.5752L6.08203 2.93262V2.33203L7.74609 1.71973H7.83691V6ZM12.0996 4.2041C12.0996 4.81738 11.9844 5.28027 11.7539 5.59277C11.5254 5.90332 11.1768 6.05859 10.708 6.05859C10.2471 6.05859 9.89941 5.90723 9.66504 5.60449C9.43262 5.2998 9.31348 4.84961 9.30762 4.25391V3.51562C9.30762 2.90234 9.42188 2.44238 9.65039 2.13574C9.88086 1.8291 10.2314 1.67578 10.7021 1.67578C11.1689 1.67578 11.5166 1.8252 11.7451 2.12402C11.9756 2.42285 12.0938 2.87012 12.0996 3.46582V4.2041ZM11.3877 3.40723C11.3877 3.00684 11.333 2.71387 11.2236 2.52832C11.1143 2.34082 10.9404 2.24707 10.7021 2.24707C10.4697 2.24707 10.2988 2.33594 10.1895 2.51367C10.0801 2.68945 10.0225 2.96484 10.0166 3.33984V4.30664C10.0166 4.70508 10.0723 5.00195 10.1836 5.19727C10.2949 5.39258 10.4697 5.49023 10.708 5.49023C10.9365 5.49023 11.1055 5.40039 11.2148 5.2207C11.3242 5.03906 11.3818 4.75586 11.3877 4.37109V3.40723Z" fill="#E1EAEE"/>
</svg>
